<svg xmlns="http://www.w3.org/2000/svg" viewBox="0 0 590.27 590.27"><defs><style>.cls-1{fill:#fff;}.cls-2{fill:#e88924;}</style></defs><g id="Layer_2" data-name="Layer 2"><g id="Layer_1-2" data-name="Layer 1"><circle cx="295.14" cy="295.14" r="295.14"/><path class="cls-1" d="M67.5,357.42h8.58l12,28,12-28h8.53v37.67H101v-24.5l-10.09,24.5H85.2l-10.15-24.5v24.5H67.5Z"/><path class="cls-1" d="M127.72,364.7a11.84,11.84,0,0,1,9.88,4.75v-4.26h7.61v29.9H137.6v-4.37a11.79,11.79,0,0,1-9.93,4.85c-7.56,0-13.6-6.2-13.6-15.54S120.11,364.7,127.72,364.7Zm1.94,6.64c-4,0-7.88,3-7.88,8.69s3.84,8.91,7.88,8.91,7.94-3.13,7.94-8.8S133.82,371.34,129.66,371.34Z"/><path class="cls-1" d="M160.15,395.09H152.6v-29.9h7.55v4.64a10.36,10.36,0,0,1,9.18-5.07v7.93h-2c-4.48,0-7.18,1.73-7.18,7.5Z"/><path class="cls-1" d="M174.4,355.15H182v22.72l10-12.68h9.82l-13.16,15,13.27,14.9H192.1L182,382.35v12.74H174.4Z"/><path class="cls-1" d="M219,395.57c-8.69,0-15-6-15-15.43s6.15-15.44,15-15.44c8.64,0,14.74,5.89,14.74,14.79a18,18,0,0,1-.22,2.92H211.63c.38,4.42,3.4,6.9,7.18,6.9a6.16,6.16,0,0,0,6-3.61H233C231.33,391.2,226.37,395.57,219,395.57Zm-7.28-18.24h14.19c-.11-3.94-3.24-6.42-7.12-6.42C215.14,370.91,212.28,373.23,211.69,377.33Z"/><path class="cls-1" d="M240.39,371.4h-3.56v-6.21h3.56V357.8H248v7.39h6.7v6.21H248v14.46c0,2,.81,2.86,3.19,2.86h3.51v6.37H250c-5.72,0-9.56-2.43-9.56-9.28Z"/><path class="cls-1" d="M259.33,357.2a4.65,4.65,0,1,1,4.64,4.43A4.43,4.43,0,0,1,259.33,357.2Zm.81,8h7.56v29.9h-7.56Z"/><path class="cls-1" d="M296.09,378.57c0-4.8-2.65-7.39-6.64-7.39s-6.75,2.59-6.75,7.39v16.52h-7.56v-29.9h7.56v3.72a11.18,11.18,0,0,1,9-4.15c7,0,11.93,4.53,11.93,12.79v17.54h-7.55Z"/><path class="cls-1" d="M322.52,364.7a11.7,11.7,0,0,1,9.88,4.75v-4.26H340v30.12c0,8.09-5,14.51-14.79,14.51-8.42,0-14.3-4.21-15.05-11.06h7.5c.75,2.7,3.56,4.48,7.34,4.48,4.15,0,7.39-2.38,7.39-7.93v-4.65a11.79,11.79,0,0,1-9.88,4.91c-7.6,0-13.65-6.2-13.65-15.54S314.92,364.7,322.52,364.7Zm2,6.64c-4.05,0-7.88,3-7.88,8.69s3.83,8.91,7.88,8.91,7.93-3.13,7.93-8.8S328.62,371.34,324.47,371.34Z"/><path class="cls-1" d="M360.24,357.42h8.58l12,28,12-28h8.52v37.67h-7.55v-24.5l-10.09,24.5h-5.73l-10.14-24.5v24.5h-7.56Z"/><path class="cls-1" d="M421.82,395.57c-8.69,0-15-6-15-15.43s6.15-15.44,15-15.44c8.63,0,14.73,5.89,14.73,14.79a17,17,0,0,1-.22,2.92H414.48c.37,4.42,3.4,6.9,7.17,6.9a6.16,6.16,0,0,0,6-3.61h8.15C434.18,391.2,429.21,395.57,421.82,395.57Zm-7.29-18.24h14.19c-.1-3.94-3.23-6.42-7.12-6.42C418,370.91,415.12,373.23,414.53,377.33Z"/><path class="cls-1" d="M453.81,364.7a12.25,12.25,0,0,1,9.77,4.65v-14.2h7.67v39.94h-7.67v-4.43a11.27,11.27,0,0,1-9.82,4.91c-7.61,0-13.65-6.2-13.65-15.54S446.15,364.7,453.81,364.7Zm1.89,6.64c-4,0-7.88,3-7.88,8.69s3.84,8.91,7.88,8.91,7.94-3.13,7.94-8.8S459.86,371.34,455.7,371.34Z"/><path class="cls-1" d="M477.83,357.2a4.64,4.64,0,1,1,4.64,4.43A4.43,4.43,0,0,1,477.83,357.2Zm.81,8h7.55v29.9h-7.55Z"/><path class="cls-1" d="M505.35,364.7a11.86,11.86,0,0,1,9.88,4.75v-4.26h7.61v29.9h-7.61v-4.37a11.81,11.81,0,0,1-9.93,4.85c-7.56,0-13.61-6.2-13.61-15.54S497.74,364.7,505.35,364.7Zm1.94,6.64c-4.05,0-7.88,3-7.88,8.69s3.83,8.91,7.88,8.91,7.94-3.13,7.94-8.8S511.45,371.34,507.29,371.34Z"/><path class="cls-2" d="M193.27,317.25l-75.12-56.32a.87.87,0,0,1,0-1.38l74.6-59.36a2.21,2.21,0,0,0,.82-1.72V165.38a2.19,2.19,0,0,0-2.19-2.19H69a2.2,2.2,0,0,0-2.2,2.19v148.4A2.2,2.2,0,0,0,69,316H91.53a2.19,2.19,0,0,0,2.19-2.19V277.87a.71.71,0,0,1,1.14-.57l.49.37L174.55,337a2.16,2.16,0,0,0,1.32.44h37.8a2.19,2.19,0,0,0,1.31-4l-20.39-15.29M93.72,242.93V192.26a2.19,2.19,0,0,1,2.2-2.19h63.57a.88.88,0,0,1,.55,1.56L94.88,243.48h0A.71.71,0,0,1,93.72,242.93Z"/><path class="cls-2" d="M203.81,214.42h22.43a2.21,2.21,0,0,1,2.21,2.21V314a2.19,2.19,0,0,1-2.19,2.19H203.79A2.19,2.19,0,0,1,201.6,314V216.63A2.21,2.21,0,0,1,203.81,214.42Z"/><path class="cls-1" d="M445.45,214.42h0a26.85,26.85,0,0,1-26.85,26.85H369.9l14.52-26.85Z"/><path class="cls-1" d="M445.45,252.12h0A26.85,26.85,0,0,1,418.6,279H349.49L364,252.12Z"/><path class="cls-1" d="M445,289.3h0a26.84,26.84,0,0,1-26.84,26.84H329.35l14.53-26.85Z"/><path class="cls-2" d="M367.69,214.42a2.21,2.21,0,0,1,1.93,3.26l-12.77,23.79L351,252.4l-14.53,27-5.19,9.67-14,26h0a2,2,0,0,1-1.74,1H292.18a2,2,0,0,1-1.74-1h0l-52.35-97.43a2.21,2.21,0,0,1,1.93-3.26h21.86a2.19,2.19,0,0,1,1.93,1.16l38.31,71.3a2,2,0,0,0,3.48,0l38.31-71.3a2.19,2.19,0,0,1,1.93-1.16Z"/><path class="cls-2" d="M484.55,316.15H459a2.2,2.2,0,0,1-2.19-2.21V216.58a2.2,2.2,0,0,1,2.19-2.21h22.68a2.2,2.2,0,0,1,2.19,2.21v22.08q5.77-14.21,15.9-20.76a37.7,37.7,0,0,1,20.75-6.55l1.81,0a2.19,2.19,0,0,1,2.13,2.21V234a2.19,2.19,0,0,1-2.15,2.2q-21.06.51-28.13,11.16-7.43,11.19-7.42,21.67v44.95A2.2,2.2,0,0,1,484.55,316.15Z"/><path class="cls-1" d="M225.9,197.19l-17.57-10.14a2.5,2.5,0,0,0-3.75,2.17V209.5a2.5,2.5,0,0,0,3.75,2.16l17.57-10.14A2.5,2.5,0,0,0,225.9,197.19Z"/></g></g></svg>